<svg width="400" height="400" viewBox="0 0 400 400" fill="none" xmlns="http://www.w3.org/2000/svg">
<path d="M0 28.6535C0 12.8329 13.2337 0 29.5592 0H370.441C386.766 0 400 12.8329 400 28.6535V371.347C400 387.172 386.766 400 370.441 400H29.5592C13.2337 400 0 387.172 0 371.347V28.6535Z" fill="#006699"/>
<path fill-rule="evenodd" clip-rule="evenodd" d="M121.252 334.842V154.219H60.836V334.842H121.252ZM91.0439 129.558C112.112 129.558 125.226 115.688 125.226 98.3552C124.833 80.6318 112.112 67.1469 91.4436 67.1469C70.7769 67.1469 57.2645 80.6318 57.2645 98.3552C57.2645 115.688 70.375 129.558 90.6501 129.558H91.0439Z" fill="white"/>
<path fill-rule="evenodd" clip-rule="evenodd" d="M154.683 334.842H215.099V233.974C215.099 228.576 215.491 223.183 217.087 219.324C221.454 208.538 231.395 197.368 248.085 197.368C269.947 197.368 278.692 213.931 278.692 238.213V334.842H339.103V231.275C339.103 175.796 309.297 149.981 269.548 149.981C236.955 149.981 222.646 168.084 214.697 180.414H215.1V154.219H154.684C155.477 171.168 154.683 334.842 154.683 334.842Z" fill="white"/>
</svg>
