<svg width="400" height="400" viewBox="0 0 400 400" fill="none" xmlns="http://www.w3.org/2000/svg">
<g clip-path="url(#clip0_65_51030)">
<path d="M310.218 0H89.7818C40.1967 0 0 40.1967 0 89.7818V310.218C0 359.803 40.1967 400 89.7818 400H310.218C359.803 400 400 359.803 400 310.218V89.7818C400 40.1967 359.803 0 310.218 0Z" fill="#23B6EA"/>
<path d="M302.736 152.407C300.935 190.925 230.551 288.743 189.816 288.743C177.809 288.743 167.694 277.705 159.474 255.629C143.679 197.437 136.612 161.69 123.034 161.69C117.226 164.109 111.809 167.377 106.962 171.389L97.2637 158.919C123.034 136.335 143.817 114.998 157.672 113.751C173.56 111.812 183.351 122.665 187.045 146.311C191.756 176.238 198.684 224.593 210.599 224.593C219.882 224.593 242.605 187.046 243.713 173.467C245.792 154.07 229.858 152.962 214.617 159.612C224.778 126.544 244.175 110.288 272.809 110.842C293.962 111.488 303.937 125.344 302.736 152.407Z" fill="white"/>
</g>
<defs>
<clipPath id="clip0_65_51030">
<rect width="400" height="400" fill="white"/>
</clipPath>
</defs>
</svg>
