<svg xmlns="http://www.w3.org/2000/svg" width="203.569" height="28" viewBox="0 0 203.569 28">
  <g id="Group_192556" data-name="Group 192556" transform="translate(235 2710)">
    <path id="Path_188912" data-name="Path 188912" d="M50.909,7.854a7.515,7.515,0,1,0,5.1,12.989V22.2h2.363V15.727c.006-.139.01-.28.008-.421a7.551,7.551,0,0,0-7.47-7.452Zm.033,12.695a5.177,5.177,0,1,1,5.093-5.08,1.077,1.077,0,0,1-.007.152h-.018v.253a5.207,5.207,0,0,1-5.069,4.674Z" transform="translate(-244.517 -2711.741)" fill="#292d33"/>
    <path id="Path_188913" data-name="Path 188913" d="M72,6.575a7.519,7.519,0,0,0-5.249,2.06V2.08H64.392V14.343H64.4A7.538,7.538,0,1,0,72,6.575ZM72.03,19.27a5.186,5.186,0,0,1-5.284-4.922V13.82A5.193,5.193,0,1,1,72.03,19.27Z" transform="translate(-249.15 -2710.461)" fill="#292d33"/>
    <path id="Path_188914" data-name="Path 188914" d="M93.1,7.853a7.52,7.52,0,0,0-7.6,7.582v.186h-.013V27.884h2.361V20.813A7.521,7.521,0,1,0,93.094,7.847Zm.034,12.695a5.186,5.186,0,0,1-5.282-4.906V15.62c0-.12-.008-.232,0-.349a5.194,5.194,0,1,1,5.29,5.283Z" transform="translate(-253.785 -2711.739)" fill="#292d33"/>
    <path id="Path_188915" data-name="Path 188915" d="M17.332,19.467A2.322,2.322,0,1,0,15,17.145,2.325,2.325,0,0,0,17.332,19.467Z" transform="translate(-238.297 -2713.286)" fill="#b84297"/>
    <path id="Path_188916" data-name="Path 188916" d="M16.258,0a14.014,14.014,0,0,0-6.135,1.407V4.413a11.4,11.4,0,0,1,17.539,9.294v8.454A14.006,14.006,0,0,0,16.258,0Z" transform="translate(-237.225 -2710)" fill="#292d33"/>
    <path id="Path_188917" data-name="Path 188917" d="M14.031,27.051A11.4,11.4,0,0,1,2.636,16.211H2.623V7.5A14.031,14.031,0,0,0,23.979,25.554V21.244a11.412,11.412,0,0,1-9.948,5.808Z" transform="translate(-235 -2711.663)" fill="#292d33"/>
    <path id="Path_188918" data-name="Path 188918" d="M16.264,19.8a3.784,3.784,0,0,1-2.339-.807v2.686a6.145,6.145,0,1,0-3.8-5.684v7.9a9.956,9.956,0,0,0,2.339,1.373V15.987a3.8,3.8,0,1,1,3.8,3.805Z" transform="translate(-237.225 -2712.184)" fill="#292d33"/>
    <path id="Path_188919" data-name="Path 188919" d="M7.586,20.9V14.512a7.6,7.6,0,1,1,5.263,7.209v2.421A9.937,9.937,0,0,0,24.9,16.625,9.915,9.915,0,0,0,17.085,4.788a9.962,9.962,0,0,0-9.5,3.341V2.893A14.065,14.065,0,0,0,5.243,4.779V14.809A9.843,9.843,0,0,0,7.586,20.9Z" transform="translate(-236.152 -2710.641)" fill="#292d33"/>
    <path id="Path_188934" data-name="Path 188934" d="M-58.492-2.333a6.871,6.871,0,0,0,5.412-2.533l-1.552-1.246a4.95,4.95,0,0,1-3.84,1.818,5.154,5.154,0,0,1-5.065-5.29,5.209,5.209,0,0,1,5.065-5.351,4.95,4.95,0,0,1,3.84,1.818l1.552-1.246A6.871,6.871,0,0,0-58.492-16.9,7.245,7.245,0,0,0-65.64-9.584,7.192,7.192,0,0,0-58.492-2.333Zm11.805,0a4.906,4.906,0,0,0,5.024-5.024,4.889,4.889,0,0,0-5.024-5,4.873,4.873,0,0,0-5,5A4.89,4.89,0,0,0-46.686-2.333Zm0-1.879a3.016,3.016,0,0,1-3-3.145,3.011,3.011,0,0,1,3-3.125,3.027,3.027,0,0,1,3.023,3.125A3.032,3.032,0,0,1-46.686-4.212Zm18.77-8.149a3.515,3.515,0,0,0-3.268,2,3.329,3.329,0,0,0-3.125-2,3.189,3.189,0,0,0-2.982,1.736v-1.491h-2v9.538h2V-7.7a2.462,2.462,0,0,1,2.512-2.737c1.185,0,2,.96,2,2.512v5.351h2.022V-7.337c0-2,.817-3.125,2.39-3.1,1.287,0,2.1.96,2.1,2.512v5.351h2.022V-8.031C-24.24-10.748-25.527-12.361-27.917-12.361Zm17.912,0a3.515,3.515,0,0,0-3.268,2,3.329,3.329,0,0,0-3.125-2,3.189,3.189,0,0,0-2.982,1.736v-1.491h-2v9.538h2V-7.7a2.462,2.462,0,0,1,2.512-2.737c1.185,0,2,.96,2,2.512v5.351h2.022V-7.337c0-2,.817-3.125,2.39-3.1,1.287,0,2.1.96,2.1,2.512v5.351h2.022V-8.031C-6.328-10.748-7.615-12.361-10-12.361ZM5.64-7.4A4.673,4.673,0,0,0,.861-12.361,4.79,4.79,0,0,0-4.061-7.378,4.818,4.818,0,0,0,.861-2.333,4.828,4.828,0,0,0,5.232-4.784l-1.593-.8a3.109,3.109,0,0,1-2.7,1.389A2.733,2.733,0,0,1-2-6.54H5.6C5.62-6.847,5.64-7.133,5.64-7.4Zm-7.618-.756A2.673,2.673,0,0,1,.881-10.5,2.6,2.6,0,0,1,3.639-8.154Zm14.665-4.207c-1.225,0-2.185.715-2.676,2.39v-2.145H7.989v9.538h2.022V-6.009c0-2.573.817-4.432,2.553-4.432a3.384,3.384,0,0,1,1.409.327l.347-1.9A3.673,3.673,0,0,0,12.687-12.361ZM20.223-2.333A4.782,4.782,0,0,0,23.94-3.967L22.613-5.213a3.133,3.133,0,0,1-2.349,1,3.105,3.105,0,0,1-3.186-3.145,3.088,3.088,0,0,1,3.186-3.125,3.133,3.133,0,0,1,2.349,1l1.328-1.246a4.782,4.782,0,0,0-3.717-1.634,4.967,4.967,0,0,0-5.147,5A4.983,4.983,0,0,0,20.223-2.333ZM27.106-14.3a1.314,1.314,0,0,0,1.368-1.287,1.314,1.314,0,0,0-1.368-1.287,1.326,1.326,0,0,0-1.368,1.287A1.326,1.326,0,0,0,27.106-14.3Zm1,11.723v-9.538h-2v9.538Zm10.416-8.108a3.724,3.724,0,0,0-3.309-1.675,4.765,4.765,0,0,0-4.718,5,4.782,4.782,0,0,0,4.636,5.024,3.865,3.865,0,0,0,3.39-1.859v1.614h2v-9.538h-2ZM35.48-4.212a3.046,3.046,0,0,1-2.962-3.145,3.034,3.034,0,0,1,2.921-3.125A3.125,3.125,0,0,1,38.5-7.357,3.1,3.1,0,0,1,35.48-4.212ZM45.529-2.578V-17.3h-2V-2.578Z" transform="translate(-76.959 -2687.166)" fill="#00cffc"/>
  </g>
</svg>
