<svg xmlns="http://www.w3.org/2000/svg" width="61" height="86.144" viewBox="0 0 61 86.144">
  <g id="Group_172937" data-name="Group 172937" transform="translate(-8150 -502)">
    <g id="Group_172935" data-name="Group 172935" transform="translate(8119)">
      <path id="Path_130244" data-name="Path 130244" d="M21.748,26.649a5.086,5.086,0,1,0-5.087-5.086A5.086,5.086,0,0,0,21.748,26.649Z" transform="translate(39.737 510.641)" fill="#e90452"/>
      <path id="Path_130248" data-name="Path 130248" d="M24.586,0A30.41,30.41,0,0,0,11.248,3.067V9.616A24.8,24.8,0,0,1,49.38,29.868V48.289A30.507,30.507,0,0,0,24.586,0Z" transform="translate(36.898 502)" fill="#38033c"/>
      <path id="Path_130249" data-name="Path 130249" d="M30.485,50.912a24.784,24.784,0,0,1-24.758-23.6H5.7V8.346A30.508,30.508,0,0,0,52.1,47.652V38.266A24.785,24.785,0,0,1,30.485,50.912Z" transform="translate(31 506.376)" fill="#38033c"/>
      <path id="Path_130250" data-name="Path 130250" d="M24.59,32.559a8.232,8.232,0,0,1-5.084-1.752v5.83A13.332,13.332,0,1,0,11.242,24.3V41.44a21.643,21.643,0,0,0,5.084,2.98V24.289a8.265,8.265,0,1,1,8.264,8.262Z" transform="translate(36.895 507.754)" fill="#38033c"/>
      <path id="Path_130251" data-name="Path 130251" d="M10.91,42.453V28.531A16.52,16.52,0,1,1,22.351,44.255v5.281A21.607,21.607,0,1,0,10.91,14.609V3.189A30.6,30.6,0,0,0,5.815,7.3V29.179A21.509,21.509,0,0,0,10.91,42.453Z" transform="translate(34.049 503.672)" fill="#38033c"/>
    </g>
    <path id="Path_130610" data-name="Path 130610" d="M-16.616-2.272h-4.656L-22.072,0h-1.9l3.984-11.136h2.112L-13.9,0h-1.92Zm-.512-1.488-1.808-5.168L-20.76-3.76ZM-6.216-5.712a2.459,2.459,0,0,1,1.52.944,2.776,2.776,0,0,1,.624,1.776,2.752,2.752,0,0,1-.44,1.528A2.982,2.982,0,0,1-5.784-.392,4.5,4.5,0,0,1-7.72,0h-4.448V-11.12h4.24a4.551,4.551,0,0,1,1.952.384A2.865,2.865,0,0,1-4.744-9.7a2.624,2.624,0,0,1,.416,1.448,2.48,2.48,0,0,1-.512,1.6A2.981,2.981,0,0,1-6.216-5.712Zm-4.128-.736h2.256a2.167,2.167,0,0,0,1.4-.408,1.425,1.425,0,0,0,.5-1.176,1.454,1.454,0,0,0-.5-1.176,2.11,2.11,0,0,0-1.4-.424h-2.256Zm2.464,4.96a2.181,2.181,0,0,0,1.456-.448A1.548,1.548,0,0,0-5.9-3.184a1.619,1.619,0,0,0-.56-1.3,2.208,2.208,0,0,0-1.488-.48h-2.4v3.472ZM5.688-7.808a3.358,3.358,0,0,1-.4,1.6,3,3,0,0,1-1.28,1.224,4.751,4.751,0,0,1-2.256.472H-.264V0H-2.088V-11.12h3.84a4.848,4.848,0,0,1,2.168.44A3.059,3.059,0,0,1,5.248-9.488,3.265,3.265,0,0,1,5.688-7.808ZM1.752-6A2.224,2.224,0,0,0,3.3-6.472a1.726,1.726,0,0,0,.512-1.336q0-1.824-2.064-1.824H-.264V-6ZM8.168.112a1.13,1.13,0,0,1-.832-.336A1.13,1.13,0,0,1,7-1.056a1.13,1.13,0,0,1,.336-.832,1.13,1.13,0,0,1,.832-.336,1.111,1.111,0,0,1,.816.336,1.13,1.13,0,0,1,.336.832,1.13,1.13,0,0,1-.336.832A1.111,1.111,0,0,1,8.168.112Zm4.048-10.1a1.13,1.13,0,0,1-.832-.336,1.13,1.13,0,0,1-.336-.832,1.13,1.13,0,0,1,.336-.832,1.13,1.13,0,0,1,.832-.336,1.111,1.111,0,0,1,.816.336,1.13,1.13,0,0,1,.336.832,1.13,1.13,0,0,1-.336.832A1.111,1.111,0,0,1,12.216-9.984Zm.9,1.168V0H11.288V-8.816ZM19.336.144A4.515,4.515,0,0,1,17.08-.424a4.08,4.08,0,0,1-1.584-1.6,4.826,4.826,0,0,1-.576-2.392A4.734,4.734,0,0,1,15.512-6.8a4.089,4.089,0,0,1,1.616-1.6,4.689,4.689,0,0,1,2.288-.56A4.689,4.689,0,0,1,21.7-8.4,4.089,4.089,0,0,1,23.32-6.8a4.734,4.734,0,0,1,.592,2.384A4.635,4.635,0,0,1,23.3-2.032,4.21,4.21,0,0,1,21.648-.424,4.773,4.773,0,0,1,19.336.144Zm0-1.584a2.714,2.714,0,0,0,1.32-.336,2.56,2.56,0,0,0,1-1.008,3.241,3.241,0,0,0,.384-1.632,3.308,3.308,0,0,0-.368-1.624,2.484,2.484,0,0,0-.976-1,2.669,2.669,0,0,0-1.312-.336,2.625,2.625,0,0,0-1.3.336,2.4,2.4,0,0,0-.952,1,3.432,3.432,0,0,0-.352,1.624,3.093,3.093,0,0,0,.728,2.2A2.406,2.406,0,0,0,19.336-1.44Z" transform="translate(8181 588)" fill="#3f4658"/>
  </g>
</svg>
