<svg width="265" height="36" viewBox="0 0 265 36" fill="none" xmlns="http://www.w3.org/2000/svg">
<path d="M53.0493 7.85401C51.4699 7.8401 49.9111 8.2138 48.5096 8.94236C47.1082 9.67093 45.9068 10.7321 45.0108 12.0329C44.1148 13.3337 43.5515 14.8344 43.3704 16.4035C43.1892 17.9726 43.3957 19.5622 43.9717 21.033C44.5476 22.5037 45.4756 23.8108 46.6741 24.8395C47.8727 25.8683 49.3053 26.5874 50.8464 26.9338C52.3874 27.2802 53.99 27.2433 55.5135 26.8263C57.037 26.4094 58.4349 25.6252 59.5849 24.5423V26.2915H62.6128V17.9697C62.6205 17.7908 62.6252 17.6103 62.6236 17.4283C62.5936 14.8984 61.5752 12.4805 59.7862 10.6915C57.9971 8.9024 55.5793 7.88404 53.0493 7.85401ZM53.091 24.1644C51.7644 24.1894 50.4606 23.8172 49.3471 23.0957C48.2335 22.3742 47.3612 21.3362 46.842 20.1152C46.3227 18.8941 46.1804 17.5457 46.4333 16.2432C46.6861 14.9407 47.3226 13.7435 48.2609 12.8054C49.1992 11.8672 50.3966 11.2311 51.6992 10.9785C53.0018 10.726 54.3501 10.8686 55.571 11.3881C56.792 11.9076 57.8297 12.7803 58.551 13.8939C59.2723 15.0076 59.6441 16.3115 59.6188 17.6381C59.6188 17.7044 59.6188 17.7692 59.6096 17.834H59.5864V18.1595C59.4221 19.7805 58.6709 21.2856 57.4744 22.3915C56.2778 23.4975 54.7184 24.128 53.0894 24.1644H53.091Z" fill="white"/>
<path d="M74.1448 7.85502C71.6438 7.82966 69.2311 8.77902 67.418 10.502V2.0799H64.3916V17.835H64.4086C64.4718 19.7267 65.0896 21.5582 66.185 23.1017C67.2805 24.6453 68.8054 25.8329 70.5702 26.517C72.335 27.2011 74.2619 27.3516 76.1115 26.9496C77.9612 26.5477 79.6519 25.6111 80.9736 24.2563C82.2954 22.9015 83.1899 21.1881 83.5459 19.3291C83.902 17.4702 83.704 15.5475 82.9765 13.8002C82.2489 12.0528 81.024 10.5577 79.4538 9.50075C77.8837 8.44378 76.0375 7.8715 74.1448 7.85502ZM74.1819 24.1654C72.4525 24.1984 70.7782 23.5566 69.5141 22.3759C68.25 21.1953 67.4954 19.5688 67.4103 17.8412V17.164C67.4784 15.8704 67.9227 14.6247 68.6887 13.58C69.4548 12.5353 70.5091 11.737 71.7224 11.283C72.9357 10.829 74.2552 10.7391 75.5188 11.0243C76.7825 11.3096 77.9354 11.9576 78.836 12.8888C79.7366 13.8199 80.3457 14.9938 80.5887 16.2663C80.8316 17.5387 80.6978 18.8545 80.2035 20.0519C79.7093 21.2494 78.8762 22.2766 77.8065 23.0073C76.7368 23.738 75.4771 24.1405 74.1819 24.1654Z" fill="white"/>
<path d="M95.2422 7.85427C93.9599 7.84295 92.6881 8.08718 91.5012 8.5727C90.3143 9.05822 89.236 9.7753 88.3292 10.6821C87.4224 11.5889 86.7053 12.6672 86.2198 13.8541C85.7342 15.0411 85.49 16.3128 85.5013 17.5952C85.5013 17.6754 85.5013 17.7494 85.5013 17.8343H85.4844V33.5909H88.5108V24.5056C89.6524 25.5875 91.041 26.374 92.5559 26.7968C94.0709 27.2196 95.6661 27.2658 97.203 26.9315C98.7399 26.5971 100.172 25.8922 101.374 24.8782C102.576 23.8643 103.513 22.5718 104.102 21.1134C104.69 19.655 104.914 18.0748 104.753 16.5103C104.592 14.9458 104.051 13.4443 103.177 12.1365C102.303 10.8287 101.123 9.75429 99.7396 9.00661C98.3558 8.25894 96.8104 7.86071 95.2376 7.84656L95.2422 7.85427ZM95.2854 24.1647C93.5599 24.1975 91.8891 23.5584 90.6259 22.3824C89.3627 21.2064 88.6059 19.5855 88.5154 17.862V17.8343C88.5154 17.68 88.5046 17.5366 88.5154 17.3854C88.5416 16.0806 88.951 14.8124 89.6924 13.7385C90.4339 12.6645 91.4748 11.8323 92.6856 11.3454C93.8964 10.8585 95.2236 10.7384 96.5022 10.9999C97.7807 11.2615 98.9541 11.8933 99.8764 12.8166C100.799 13.7399 101.429 14.914 101.689 16.1929C101.949 17.4717 101.828 18.7988 101.339 20.0091C100.851 21.2193 100.018 22.2592 98.943 22.9995C97.8682 23.7397 96.5995 24.1476 95.2947 24.1724L95.2854 24.1647Z" fill="white"/>
<path d="M17.9877 20.7894C19.6351 20.7894 20.9705 19.454 20.9705 17.8066C20.9705 16.1592 19.6351 14.8238 17.9877 14.8238C16.3403 14.8238 15.0049 16.1592 15.0049 17.8066C15.0049 19.454 16.3403 20.7894 17.9877 20.7894Z" fill="#B84297"/>
<path d="M17.9853 6.89366e-05C15.2612 -0.00248874 12.5723 0.615919 10.123 1.8083V5.66986C12.3053 4.27682 14.8183 3.48831 17.4053 3.38498C19.9922 3.28165 22.5601 3.86721 24.8465 5.08176C27.1329 6.29632 29.0557 8.0963 30.4182 10.2976C31.7808 12.499 32.5342 15.0227 32.6014 17.6107V28.4724C34.53 25.7845 35.68 22.6168 35.9248 19.3177C36.1696 16.0186 35.4997 12.7159 33.9889 9.77283C32.4781 6.82977 30.1849 4.36035 27.3614 2.63617C24.5379 0.911996 21.2936 -0.000145507 17.9853 6.89366e-05Z" fill="white"/>
<path d="M17.9822 32.619C14.2247 32.6189 10.6115 31.1721 7.89224 28.5788C5.173 25.9856 3.55648 22.4449 3.37808 18.6915H3.36111V7.50232C0.731701 11.1772 -0.41925 15.7068 0.13689 20.1912C0.693031 24.6756 2.91557 28.7868 6.36301 31.708C9.81044 34.6292 14.2305 36.1467 18.7452 35.9591C23.2599 35.7715 27.5388 33.8924 30.732 30.6952V25.157C29.4608 27.4209 27.6097 29.3055 25.3689 30.6169C23.1281 31.9284 20.5785 32.6194 17.9822 32.619Z" fill="white"/>
<path d="M17.993 22.6278C16.9063 22.6288 15.8508 22.2638 14.9955 21.5912V25.0416C16.5548 25.6851 18.2789 25.8088 19.9135 25.3943C21.5481 24.9798 23.0067 24.049 24.074 22.7394C25.1414 21.4298 25.7611 19.8106 25.8416 18.1207C25.9222 16.4308 25.4593 14.7596 24.5213 13.3538C23.5834 11.9479 22.22 10.8818 20.6322 10.3126C19.0445 9.74349 17.3165 9.70147 15.7032 10.1928C14.0898 10.6841 12.6766 11.6827 11.6719 13.0413C10.6671 14.4 10.1242 16.0467 10.123 17.7385V27.8839C11.0374 28.6062 12.0459 29.1997 13.1205 29.6477V17.7339C13.1205 16.7668 13.4063 15.8215 13.9417 15.0175C14.4771 14.2134 15.2381 13.5868 16.1284 13.2167C17.0187 12.8466 17.9984 12.7498 18.9436 12.9385C19.8887 13.1271 20.7569 13.5928 21.4383 14.2766C22.1198 14.9604 22.5838 15.8316 22.7718 16.78C22.9598 17.7284 22.8633 18.7115 22.4946 19.6049C22.1258 20.4983 21.5013 21.2619 20.7 21.7992C19.8987 22.3364 18.9567 22.6232 17.993 22.6232V22.6278Z" fill="white"/>
<path d="M8.24548 26.0222V17.8212C8.24643 15.7675 8.8979 13.7669 10.1066 12.1057C11.3153 10.4445 13.0192 9.20799 14.9744 8.57325C16.9295 7.9385 19.0356 7.93806 20.991 8.57201C22.9464 9.20595 24.6509 10.4418 25.8602 12.1025C27.0696 13.7631 27.7219 15.7635 27.7237 17.8172C27.7255 19.8708 27.0767 21.8723 25.8702 23.5351C24.6638 25.1979 22.9615 26.4367 21.0072 27.0741C19.0529 27.7114 16.9468 27.7147 14.9906 27.0833V30.1943C17.1965 30.7279 19.505 30.6632 21.6775 30.0069C23.85 29.3507 25.8076 28.1267 27.348 26.4615C28.8883 24.7963 29.9554 22.7503 30.439 20.5352C30.9227 18.32 30.8052 16.0159 30.0988 13.8613C29.3924 11.7066 28.1228 9.77956 26.4211 8.27929C24.7194 6.77902 22.6474 5.76002 20.4194 5.32762C18.1914 4.89523 15.8882 5.06514 13.748 5.81979C11.6077 6.57444 9.70809 7.88644 8.24548 9.62015V5.46189V2.89301C7.16052 3.59089 6.15366 4.40307 5.24219 5.31558V18.2031C5.32725 21.0742 6.38621 23.8312 8.24548 26.0222Z" fill="white"/>
<path d="M126.756 26.2564C124.065 26.2564 121.784 25.3302 119.914 23.4779C118.062 21.6255 117.136 19.345 117.136 16.6364C117.136 13.9277 118.062 11.6472 119.914 9.79489C121.784 7.94253 124.065 7.01635 126.756 7.01635C128.451 7.01635 130.006 7.40954 131.422 8.19592C132.837 8.96482 133.982 10.0221 134.855 11.3676L133.204 12.4161C132.523 11.3327 131.623 10.4764 130.504 9.84731C129.386 9.21821 128.136 8.90366 126.756 8.90366C124.606 8.90366 122.798 9.65509 121.33 11.1579C119.879 12.6433 119.154 14.4695 119.154 16.6364C119.154 18.8208 119.879 20.6556 121.33 22.141C122.798 23.6264 124.606 24.3691 126.756 24.3691C128.136 24.3691 129.386 24.0545 130.504 23.4254C131.623 22.7963 132.523 21.9401 133.204 20.8566L134.855 21.9051C133.982 23.2507 132.837 24.3167 131.422 25.103C130.006 25.8719 128.451 26.2564 126.756 26.2564Z" fill="white"/>
<path d="M148.587 24.238C147.294 25.5487 145.66 26.204 143.685 26.204C141.711 26.204 140.077 25.5487 138.784 24.238C137.491 22.9099 136.844 21.2935 136.844 19.3887C136.844 17.4839 137.491 15.8762 138.784 14.5656C140.077 13.2375 141.711 12.5734 143.685 12.5734C145.66 12.5734 147.294 13.2375 148.587 14.5656C149.88 15.8762 150.527 17.4839 150.527 19.3887C150.527 21.2935 149.88 22.9099 148.587 24.238ZM140.094 23.0322C141.02 24.0109 142.218 24.5002 143.685 24.5002C145.153 24.5002 146.342 24.0109 147.25 23.0322C148.177 22.0362 148.64 20.8217 148.64 19.3887C148.64 17.9557 148.177 16.75 147.25 15.7714C146.342 14.7753 145.153 14.2772 143.685 14.2772C142.218 14.2772 141.02 14.7753 140.094 15.7714C139.186 16.75 138.731 17.9557 138.731 19.3887C138.731 20.8217 139.186 22.0362 140.094 23.0322Z" fill="white"/>
<path d="M170.93 25.9418V17.9994C170.93 16.881 170.685 15.9811 170.196 15.2995C169.724 14.618 169.042 14.2772 168.151 14.2772C166.98 14.2772 166.036 14.7491 165.32 15.6927C164.621 16.6189 164.272 17.8596 164.272 19.4149V25.9418H162.437V17.9994C162.437 16.881 162.192 15.9811 161.703 15.2995C161.231 14.618 160.558 14.2772 159.684 14.2772C158.531 14.2772 157.587 14.7491 156.853 15.6927C156.137 16.6189 155.779 17.8596 155.779 19.4149V25.9418H153.944V12.8355H155.779V15.0374C156.163 14.2685 156.714 13.6656 157.43 13.2287C158.147 12.7919 158.959 12.5734 159.868 12.5734C160.846 12.5734 161.685 12.8355 162.384 13.3598C163.101 13.8841 163.616 14.6093 163.931 15.5354C164.263 14.6267 164.805 13.9103 165.556 13.386C166.325 12.8443 167.234 12.5734 168.282 12.5734C169.645 12.5734 170.729 13.054 171.532 14.0151C172.354 14.9588 172.764 16.1995 172.764 17.7373V25.9418H170.93Z" fill="white"/>
<path d="M194.045 25.9418V17.9994C194.045 16.881 193.8 15.9811 193.311 15.2995C192.839 14.618 192.157 14.2772 191.266 14.2772C190.095 14.2772 189.152 14.7491 188.435 15.6927C187.736 16.6189 187.387 17.8596 187.387 19.4149V25.9418H185.552V17.9994C185.552 16.881 185.307 15.9811 184.818 15.2995C184.346 14.618 183.673 14.2772 182.8 14.2772C181.646 14.2772 180.703 14.7491 179.969 15.6927C179.252 16.6189 178.894 17.8596 178.894 19.4149V25.9418H177.059V12.8355H178.894V15.0374C179.278 14.2685 179.829 13.6656 180.545 13.2287C181.262 12.7919 182.074 12.5734 182.983 12.5734C183.962 12.5734 184.8 12.8355 185.499 13.3598C186.216 13.8841 186.731 14.6093 187.046 15.5354C187.378 14.6267 187.92 13.9103 188.671 13.386C189.44 12.8443 190.349 12.5734 191.397 12.5734C192.76 12.5734 193.844 13.054 194.648 14.0151C195.469 14.9588 195.88 16.1995 195.88 17.7373V25.9418H194.045Z" fill="white"/>
<path d="M205.836 26.204C203.826 26.204 202.201 25.5574 200.961 24.2642C199.72 22.9536 199.099 21.3284 199.099 19.3887C199.099 17.4664 199.737 15.85 201.013 14.5394C202.289 13.2287 203.914 12.5734 205.889 12.5734C207.654 12.5734 209.121 13.1676 210.292 14.3559C211.463 15.5442 212.048 17.1606 212.048 19.2052V19.7032H200.987C200.987 21.0663 201.441 22.2109 202.35 23.1371C203.259 24.0458 204.421 24.5002 205.836 24.5002C206.885 24.5002 207.741 24.2992 208.405 23.8973C209.086 23.4779 209.672 22.8575 210.161 22.0362L211.655 23.006C210.415 25.138 208.475 26.204 205.836 26.204ZM201.144 18.0781H210.135C209.96 16.9072 209.48 15.9811 208.693 15.2995C207.907 14.618 206.946 14.2772 205.81 14.2772C204.674 14.2772 203.66 14.6267 202.769 15.3257C201.895 16.0073 201.354 16.9247 201.144 18.0781Z" fill="white"/>
<path d="M215.431 25.9418V12.8355H217.266V15.5354C217.545 14.6617 218.043 13.9714 218.76 13.4646C219.476 12.9579 220.245 12.7045 221.066 12.7045C221.433 12.7045 221.748 12.7394 222.01 12.8093V14.7229C221.696 14.6005 221.329 14.5394 220.909 14.5394C219.983 14.5394 219.144 14.9588 218.393 15.7976C217.641 16.6364 217.266 17.8247 217.266 19.3625V25.9418H215.431Z" fill="white"/>
<path d="M230.079 26.204C228.105 26.204 226.471 25.5487 225.178 24.238C223.885 22.9099 223.238 21.2935 223.238 19.3887C223.238 17.4839 223.885 15.8762 225.178 14.5656C226.471 13.2375 228.105 12.5734 230.079 12.5734C231.408 12.5734 232.587 12.8792 233.618 13.4909C234.667 14.1025 235.488 14.9413 236.082 16.0073L234.483 16.9247C234.064 16.1034 233.47 15.4568 232.701 14.985C231.949 14.5132 231.076 14.2772 230.079 14.2772C228.612 14.2772 227.415 14.7753 226.488 15.7714C225.58 16.75 225.125 17.9557 225.125 19.3887C225.125 20.8217 225.58 22.0362 226.488 23.0322C227.415 24.0109 228.612 24.5002 230.079 24.5002C231.076 24.5002 231.949 24.2642 232.701 23.7924C233.47 23.3206 234.064 22.674 234.483 21.8527L236.082 22.7701C235.488 23.8361 234.667 24.6749 233.618 25.2865C232.587 25.8982 231.408 26.204 230.079 26.204Z" fill="white"/>
<path d="M240.155 8.90366C239.753 8.90366 239.412 8.77259 239.133 8.51047C238.871 8.23087 238.74 7.89884 238.74 7.51439C238.74 7.12994 238.871 6.80665 239.133 6.54452C239.412 6.26492 239.753 6.12512 240.155 6.12512C240.54 6.12512 240.863 6.26492 241.125 6.54452C241.387 6.80665 241.518 7.12994 241.518 7.51439C241.518 7.89884 241.387 8.23087 241.125 8.51047C240.863 8.77259 240.54 8.90366 240.155 8.90366ZM239.211 25.9418V12.8355H241.046V25.9418H239.211Z" fill="white"/>
<path d="M250.986 26.204C249.151 26.204 247.604 25.5399 246.346 24.2118C245.088 22.8837 244.459 21.276 244.459 19.3887C244.459 17.5014 245.088 15.8937 246.346 14.5656C247.604 13.2375 249.151 12.5734 250.986 12.5734C251.982 12.5734 252.917 12.8006 253.791 13.2549C254.682 13.7093 255.363 14.3035 255.835 15.0374V12.8355H257.67V25.9418H255.835V23.74C255.363 24.4739 254.682 25.0681 253.791 25.5224C252.917 25.9768 251.982 26.204 250.986 26.204ZM247.683 23.0322C248.592 24.0109 249.754 24.5002 251.169 24.5002C252.585 24.5002 253.738 24.0109 254.629 23.0322C255.538 22.0362 255.992 20.8217 255.992 19.3887C255.992 17.9557 255.538 16.75 254.629 15.7714C253.738 14.7753 252.585 14.2772 251.169 14.2772C249.754 14.2772 248.592 14.7753 247.683 15.7714C246.792 16.75 246.346 17.9557 246.346 19.3887C246.346 20.8217 246.792 22.0362 247.683 23.0322Z" fill="white"/>
<path d="M262.173 25.9418V6.2824H264.008V25.9418H262.173Z" fill="white"/>
</svg>
