<svg xmlns="http://www.w3.org/2000/svg" width="101.296" height="86.144" viewBox="0 0 101.296 86.144">
  <g id="Group_172936" data-name="Group 172936" transform="translate(-8288.32 -502)">
    <g id="Layer_1_copy_5" data-name="Layer 1 copy 5" transform="translate(8309.113 502)">
      <path id="Path_130252" data-name="Path 130252" d="M10,10H44.328L54.192.122A9.446,9.446,0,0,0,52.667,0h-43A9.671,9.671,0,0,0,0,9.671v43a9.446,9.446,0,0,0,.122,1.525L10,44.328Z" transform="translate(0 0)" fill="#0b7"/>
      <path id="Path_130253" data-name="Path 130253" d="M65.906,65.906H31.565L21.7,75.771a9.815,9.815,0,0,0,1.525.122h43a9.671,9.671,0,0,0,9.671-9.671v-43a9.815,9.815,0,0,0-.122-1.525l-9.865,9.865Z" transform="translate(-14.917 -14.917)" fill="#031649"/>
      <path id="Path_130254" data-name="Path 130254" d="M83.74,99.358H98.871V84.23" transform="translate(-57.566 -57.903)" fill="#031649"/>
      <path id="Path_130255" data-name="Path 130255" d="M77.091,62.93H61.96V78.058" transform="translate(-42.593 -43.26)" fill="#0b7"/>
    </g>
    <path id="Path_130611" data-name="Path 130611" d="M-43.32-2.272h-4.656L-48.776,0h-1.9L-46.7-11.136h2.112L-40.6,0h-1.92Zm-.512-1.488L-45.64-8.928-47.464-3.76ZM-35.208.112A4.98,4.98,0,0,1-37.224-.28a3.308,3.308,0,0,1-1.408-1.112,2.824,2.824,0,0,1-.512-1.68h1.952a1.762,1.762,0,0,0,.568,1.184,2.014,2.014,0,0,0,1.416.464,2.181,2.181,0,0,0,1.472-.456,1.482,1.482,0,0,0,.528-1.176,1.284,1.284,0,0,0-.328-.912,2.194,2.194,0,0,0-.816-.544A12.306,12.306,0,0,0-35.7-4.928a12.667,12.667,0,0,1-1.768-.584,2.922,2.922,0,0,1-1.16-.92,2.659,2.659,0,0,1-.48-1.664,2.958,2.958,0,0,1,.48-1.68,3.066,3.066,0,0,1,1.344-1.1,4.883,4.883,0,0,1,2-.384,4.168,4.168,0,0,1,2.648.808A2.981,2.981,0,0,1-31.5-8.24h-2.016a1.461,1.461,0,0,0-.576-1.04,2.129,2.129,0,0,0-1.392-.432,1.975,1.975,0,0,0-1.28.4,1.394,1.394,0,0,0-.5,1.152,1.169,1.169,0,0,0,.312.84,2.2,2.2,0,0,0,.792.52,12.3,12.3,0,0,0,1.312.416,13.7,13.7,0,0,1,1.8.608,3,3,0,0,1,1.184.936,2.69,2.69,0,0,1,.488,1.688,3.035,3.035,0,0,1-.456,1.6A3.29,3.29,0,0,1-33.152-.344,4.379,4.379,0,0,1-35.208.112Zm13.776-7.92a3.358,3.358,0,0,1-.4,1.6,3,3,0,0,1-1.28,1.224,4.751,4.751,0,0,1-2.256.472h-2.016V0h-1.824V-11.12h3.84a4.848,4.848,0,0,1,2.168.44,3.059,3.059,0,0,1,1.328,1.192A3.265,3.265,0,0,1-21.432-7.808ZM-25.368-6a2.224,2.224,0,0,0,1.552-.472A1.726,1.726,0,0,0-23.3-7.808q0-1.824-2.064-1.824h-2.016V-6ZM-18.952.112a1.13,1.13,0,0,1-.832-.336,1.13,1.13,0,0,1-.336-.832,1.13,1.13,0,0,1,.336-.832,1.13,1.13,0,0,1,.832-.336,1.111,1.111,0,0,1,.816.336,1.13,1.13,0,0,1,.336.832,1.13,1.13,0,0,1-.336.832A1.111,1.111,0,0,1-18.952.112ZM-6.7,0H-8.52l-5.488-8.3V0h-1.824V-11.136h1.824L-8.52-2.848v-8.288H-6.7Zm4.224-9.648v3.264h3.84V-4.9h-3.84v3.408h4.32V0H-4.3V-11.136H1.848v1.488ZM11.272-11.12v1.488H8.312V0H6.488V-9.632H3.512V-11.12Zm7.76,9.536H24.2V0H16.872V-1.424l5.152-8.112H16.872V-11.12H24.2V-9.7ZM34.28-4.624a5.7,5.7,0,0,1-.064.9H27.48a2.446,2.446,0,0,0,.784,1.7,2.475,2.475,0,0,0,1.728.64,2.134,2.134,0,0,0,2.08-1.232H34.04A3.971,3.971,0,0,1,32.592-.632a4.249,4.249,0,0,1-2.6.776,4.5,4.5,0,0,1-2.264-.568,4.041,4.041,0,0,1-1.568-1.6,4.881,4.881,0,0,1-.568-2.392,5,5,0,0,1,.552-2.392A3.882,3.882,0,0,1,27.7-8.4a4.619,4.619,0,0,1,2.3-.56,4.49,4.49,0,0,1,2.224.544,3.844,3.844,0,0,1,1.52,1.528A4.6,4.6,0,0,1,34.28-4.624Zm-1.9-.576a2.076,2.076,0,0,0-.72-1.616,2.574,2.574,0,0,0-1.744-.608,2.343,2.343,0,0,0-1.616.6A2.507,2.507,0,0,0,27.5-5.2ZM37.9-7.536A2.865,2.865,0,0,1,38.96-8.584a3.147,3.147,0,0,1,1.576-.376v1.888h-.464a2.221,2.221,0,0,0-1.624.544A2.6,2.6,0,0,0,37.9-4.64V0H36.072V-8.816H37.9ZM46.04.144a4.515,4.515,0,0,1-2.256-.568,4.08,4.08,0,0,1-1.584-1.6,4.826,4.826,0,0,1-.576-2.392A4.734,4.734,0,0,1,42.216-6.8a4.089,4.089,0,0,1,1.616-1.6,4.689,4.689,0,0,1,2.288-.56,4.689,4.689,0,0,1,2.288.56,4.089,4.089,0,0,1,1.616,1.6,4.734,4.734,0,0,1,.592,2.384,4.635,4.635,0,0,1-.608,2.384A4.21,4.21,0,0,1,48.352-.424,4.773,4.773,0,0,1,46.04.144Zm0-1.584a2.714,2.714,0,0,0,1.32-.336,2.56,2.56,0,0,0,1-1.008,3.241,3.241,0,0,0,.384-1.632,3.308,3.308,0,0,0-.368-1.624,2.484,2.484,0,0,0-.976-1,2.669,2.669,0,0,0-1.312-.336,2.625,2.625,0,0,0-1.3.336,2.4,2.4,0,0,0-.952,1,3.432,3.432,0,0,0-.352,1.624,3.093,3.093,0,0,0,.728,2.2A2.406,2.406,0,0,0,46.04-1.44Z" transform="translate(8339 588)" fill="#3f4658"/>
  </g>
</svg>
