<svg xmlns="http://www.w3.org/2000/svg" width="20" height="19" viewBox="0 0 20 19">
  <g id="Group_172828" data-name="Group 172828" transform="translate(-31.5 -329)">
    <path id="Path_130232" data-name="Path 130232" d="M1.5,15.97A1.5,1.5,0,0,1,0,14.47V4.084A2.888,2.888,0,0,1,2.884,1.2H15.346a1.5,1.5,0,1,1,0,3H3.4a.5.5,0,0,0-.51.5L3,14.47a1.5,1.5,0,0,1-1.5,1.5Z" transform="translate(31.5 327.8)" fill="#8f25ff"/>
    <path id="Path_130233" data-name="Path 130233" d="M25,13.2H14a2,2,0,0,0-2,2v10a2,2,0,0,0,2,2H25a2,2,0,0,0,2-2v-10A2,2,0,0,0,25,13.2ZM23.6,23.922a.5.5,0,0,1-.428.244l-7.182.03a.5.5,0,0,1-.4-.8L19,18.664a1.358,1.358,0,0,1,2.04,0L23.6,23.43A.5.5,0,0,1,23.6,23.922Z" transform="translate(24.5 320.8)" fill="#0562e9"/>
  </g>
</svg>
