<svg xmlns="http://www.w3.org/2000/svg" width="20" height="20.238" viewBox="0 0 20 20.238">
  <g id="Group_172829" data-name="Group 172829" transform="translate(-31.5 -277)">
    <path id="Path_130226" data-name="Path 130226" d="M19.6,0a.791.791,0,0,0-.693.41,22.857,22.857,0,0,0-2.8,8.568.533.533,0,0,0,.529.584h5.939a.533.533,0,0,0,.529-.584A22.761,22.761,0,0,0,20.3.425.8.8,0,0,0,19.6,0Z" transform="translate(21.9 277)" fill="#8f25ff"/>
    <path id="Path_130227" data-name="Path 130227" d="M16.635,26.4a.533.533,0,0,0-.529.584A22.723,22.723,0,0,0,18.9,35.548a.793.793,0,0,0,1.392,0,22.831,22.831,0,0,0,2.8-8.564.533.533,0,0,0-.519-.584Z" transform="translate(21.901 261.276)" fill="#8f25ff"/>
    <path id="Path_130228" data-name="Path 130228" d="M34.225,10.213a.529.529,0,0,0,.525.489h3.806a.533.533,0,0,0,.525-.616,10.666,10.666,0,0,0-6.1-7.994.531.531,0,0,0-.706.7,23.333,23.333,0,0,1,1.949,7.425Z" transform="translate(12.412 275.861)" fill="#0562e9"/>
    <path id="Path_130229" data-name="Path 130229" d="M4.621,10.7a.529.529,0,0,0,.529-.489A23.333,23.333,0,0,1,7.095,2.788a.531.531,0,0,0-.706-.7,10.666,10.666,0,0,0-6.1,7.994.54.54,0,0,0,.121.425.531.531,0,0,0,.4.187Z" transform="translate(31.216 275.861)" fill="#f60c80"/>
    <path id="Path_130230" data-name="Path 130230" d="M34.745,26.4a.529.529,0,0,0-.529.489,23.333,23.333,0,0,1-1.949,7.425.531.531,0,0,0,.706.7,10.67,10.67,0,0,0,6.1-7.994.54.54,0,0,0-.121-.425.531.531,0,0,0-.4-.187Z" transform="translate(12.418 261.276)" fill="#f60c80"/>
    <path id="Path_130231" data-name="Path 130231" d="M5.145,26.889A.529.529,0,0,0,4.62,26.4H.814a.533.533,0,0,0-.525.616,10.67,10.67,0,0,0,6.1,7.994.531.531,0,0,0,.706-.7,23.333,23.333,0,0,1-1.949-7.425Z" transform="translate(31.217 261.276)" fill="#0562e9"/>
  </g>
</svg>
